<svg width="136" height="48" viewBox="0 0 136 48" fill="none" xmlns="http://www.w3.org/2000/svg">
<path d="M0 24C0 10.7452 10.7452 0 24 0H112C125.255 0 136 10.7452 136 24C136 37.2548 125.255 48 112 48H24C10.7452 48 0 37.2548 0 24Z" fill="#F3EEF5"/>
<path d="M55.4972 29.5V17.8636H59.7585C60.5843 17.8636 61.268 18 61.8097 18.2727C62.3513 18.5417 62.7566 18.9072 63.0256 19.3693C63.2945 19.8277 63.429 20.3447 63.429 20.9205C63.429 21.4053 63.34 21.8144 63.1619 22.1477C62.9839 22.4773 62.7453 22.7424 62.446 22.9432C62.1506 23.1402 61.8248 23.2841 61.4688 23.375V23.4886C61.8551 23.5076 62.232 23.6326 62.5994 23.8636C62.9706 24.0909 63.2775 24.4148 63.5199 24.8352C63.7623 25.2557 63.8835 25.767 63.8835 26.3693C63.8835 26.964 63.7434 27.4981 63.4631 27.9716C63.1866 28.4413 62.7585 28.8144 62.179 29.0909C61.5994 29.3636 60.8589 29.5 59.9574 29.5H55.4972ZM57.2528 27.9943H59.7869C60.6278 27.9943 61.2301 27.8314 61.5938 27.5057C61.9574 27.1799 62.1392 26.7727 62.1392 26.2841C62.1392 25.9167 62.0464 25.5795 61.8608 25.2727C61.6752 24.9659 61.41 24.7216 61.0653 24.5398C60.7244 24.358 60.3191 24.267 59.8494 24.267H57.2528V27.9943ZM57.2528 22.8977H59.6051C59.9991 22.8977 60.3532 22.822 60.6676 22.6705C60.9858 22.5189 61.2377 22.3068 61.4233 22.0341C61.6127 21.7576 61.7074 21.4318 61.7074 21.0568C61.7074 20.5758 61.5388 20.1723 61.2017 19.8466C60.8646 19.5208 60.3475 19.358 59.6506 19.358H57.2528V22.8977ZM69.5909 29.6761C68.7311 29.6761 67.9905 29.4924 67.3693 29.125C66.7519 28.7538 66.2746 28.233 65.9375 27.5625C65.6042 26.8883 65.4375 26.0985 65.4375 25.1932C65.4375 24.2992 65.6042 23.5114 65.9375 22.8295C66.2746 22.1477 66.7443 21.6155 67.3466 21.233C67.9527 20.8504 68.661 20.6591 69.4716 20.6591C69.964 20.6591 70.4413 20.7405 70.9034 20.9034C71.3655 21.0663 71.7803 21.322 72.1477 21.6705C72.5152 22.0189 72.8049 22.4716 73.017 23.0284C73.2292 23.5814 73.3352 24.2538 73.3352 25.0455V25.6477H66.3977V24.375H71.6705C71.6705 23.928 71.5795 23.5322 71.3977 23.1875C71.2159 22.839 70.9602 22.5644 70.6307 22.3636C70.3049 22.1629 69.9223 22.0625 69.483 22.0625C69.0057 22.0625 68.589 22.1799 68.233 22.4148C67.8807 22.6458 67.608 22.9489 67.4148 23.3239C67.2254 23.6951 67.1307 24.0985 67.1307 24.5341V25.5284C67.1307 26.1117 67.233 26.608 67.4375 27.017C67.6458 27.4261 67.9356 27.7386 68.3068 27.9545C68.678 28.1667 69.1117 28.2727 69.608 28.2727C69.9299 28.2727 70.2235 28.2273 70.4886 28.1364C70.7538 28.0417 70.983 27.9015 71.1761 27.7159C71.3693 27.5303 71.517 27.3011 71.6193 27.0284L73.2273 27.3182C73.0985 27.7917 72.8674 28.2064 72.5341 28.5625C72.2045 28.9148 71.7898 29.1894 71.2898 29.3864C70.7936 29.5795 70.2273 29.6761 69.5909 29.6761ZM75.3565 29.5V17.8636H77.0554V22.1875H77.1577C77.2562 22.0057 77.3982 21.7955 77.5838 21.5568C77.7694 21.3182 78.027 21.1098 78.3565 20.9318C78.6861 20.75 79.1217 20.6591 79.6634 20.6591C80.3679 20.6591 80.9967 20.8371 81.5497 21.1932C82.1027 21.5492 82.5365 22.0625 82.8509 22.733C83.169 23.4034 83.3281 24.2102 83.3281 25.1534C83.3281 26.0966 83.1709 26.9053 82.8565 27.5795C82.5421 28.25 82.1103 28.767 81.5611 29.1307C81.0118 29.4905 80.3849 29.6705 79.6804 29.6705C79.1501 29.6705 78.7164 29.5814 78.3793 29.4034C78.0459 29.2254 77.7846 29.017 77.5952 28.7784C77.4058 28.5398 77.2599 28.3277 77.1577 28.142H77.0156V29.5H75.3565ZM77.0213 25.1364C77.0213 25.75 77.1103 26.2879 77.2884 26.75C77.4664 27.2121 77.724 27.5739 78.0611 27.8352C78.3982 28.0928 78.8111 28.2216 79.2997 28.2216C79.8073 28.2216 80.2315 28.0871 80.5724 27.8182C80.9134 27.5455 81.1709 27.1761 81.3452 26.7102C81.5232 26.2443 81.6122 25.7197 81.6122 25.1364C81.6122 24.5606 81.5251 24.0436 81.3509 23.5852C81.1804 23.1269 80.9228 22.7652 80.5781 22.5C80.2372 22.2348 79.8111 22.1023 79.2997 22.1023C78.8073 22.1023 78.3906 22.2292 78.0497 22.483C77.7126 22.7367 77.4569 23.0909 77.2827 23.5455C77.1084 24 77.0213 24.5303 77.0213 25.1364ZM85.2358 29.5V20.7727H86.9347V29.5H85.2358ZM86.0938 19.4261C85.7983 19.4261 85.5445 19.3277 85.3324 19.1307C85.1241 18.9299 85.0199 18.6913 85.0199 18.4148C85.0199 18.1345 85.1241 17.8958 85.3324 17.6989C85.5445 17.4981 85.7983 17.3977 86.0938 17.3977C86.3892 17.3977 86.6411 17.4981 86.8494 17.6989C87.0616 17.8958 87.1676 18.1345 87.1676 18.4148C87.1676 18.6913 87.0616 18.9299 86.8494 19.1307C86.6411 19.3277 86.3892 19.4261 86.0938 19.4261ZM92.4872 29.6705C91.7827 29.6705 91.1539 29.4905 90.6009 29.1307C90.0516 28.767 89.6198 28.25 89.3054 27.5795C88.9948 26.9053 88.8395 26.0966 88.8395 25.1534C88.8395 24.2102 88.9967 23.4034 89.3111 22.733C89.6293 22.0625 90.0649 21.5492 90.6179 21.1932C91.1709 20.8371 91.7978 20.6591 92.4986 20.6591C93.0402 20.6591 93.4759 20.75 93.8054 20.9318C94.1387 21.1098 94.3963 21.3182 94.5781 21.5568C94.7637 21.7955 94.9077 22.0057 95.0099 22.1875H95.1122V17.8636H96.8111V29.5H95.152V28.142H95.0099C94.9077 28.3277 94.7599 28.5398 94.5668 28.7784C94.3774 29.017 94.116 29.2254 93.7827 29.4034C93.4493 29.5814 93.0175 29.6705 92.4872 29.6705ZM92.8622 28.2216C93.3509 28.2216 93.7637 28.0928 94.1009 27.8352C94.4418 27.5739 94.6993 27.2121 94.8736 26.75C95.0516 26.2879 95.1406 25.75 95.1406 25.1364C95.1406 24.5303 95.0535 24 94.8793 23.5455C94.705 23.0909 94.4493 22.7367 94.1122 22.483C93.7751 22.2292 93.3584 22.1023 92.8622 22.1023C92.3509 22.1023 91.9247 22.2348 91.5838 22.5C91.2429 22.7652 90.9853 23.1269 90.8111 23.5852C90.6406 24.0436 90.5554 24.5606 90.5554 25.1364C90.5554 25.7197 90.6425 26.2443 90.8168 26.7102C90.991 27.1761 91.2486 27.5455 91.5895 27.8182C91.9342 28.0871 92.3584 28.2216 92.8622 28.2216ZM101.776 29.6932C101.223 29.6932 100.723 29.5909 100.276 29.3864C99.8286 29.178 99.4744 28.8769 99.2131 28.483C98.9555 28.089 98.8267 27.6061 98.8267 27.0341C98.8267 26.5417 98.9214 26.1364 99.1108 25.8182C99.3002 25.5 99.5559 25.2481 99.8778 25.0625C100.2 24.8769 100.56 24.7367 100.957 24.642C101.355 24.5473 101.76 24.4754 102.173 24.4261C102.696 24.3655 103.12 24.3163 103.446 24.2784C103.772 24.2367 104.009 24.1705 104.156 24.0795C104.304 23.9886 104.378 23.8409 104.378 23.6364V23.5966C104.378 23.1004 104.238 22.7159 103.957 22.4432C103.681 22.1705 103.268 22.0341 102.719 22.0341C102.147 22.0341 101.696 22.161 101.366 22.4148C101.041 22.6648 100.815 22.9432 100.69 23.25L99.0938 22.8864C99.2831 22.3561 99.5597 21.928 99.9233 21.6023C100.291 21.2727 100.713 21.0341 101.19 20.8864C101.668 20.7348 102.17 20.6591 102.696 20.6591C103.045 20.6591 103.414 20.7008 103.804 20.7841C104.198 20.8636 104.565 21.0114 104.906 21.2273C105.251 21.4432 105.533 21.7519 105.753 22.1534C105.973 22.5511 106.082 23.0682 106.082 23.7045V29.5H104.423V28.3068H104.355C104.245 28.5265 104.08 28.7424 103.861 28.9545C103.641 29.1667 103.359 29.3428 103.014 29.483C102.67 29.6231 102.257 29.6932 101.776 29.6932ZM102.145 28.3295C102.615 28.3295 103.016 28.2367 103.349 28.0511C103.687 27.8655 103.942 27.6231 104.116 27.3239C104.295 27.0208 104.384 26.697 104.384 26.3523V25.2273C104.323 25.2879 104.205 25.3447 104.031 25.3977C103.861 25.447 103.666 25.4905 103.446 25.5284C103.226 25.5625 103.012 25.5947 102.804 25.625C102.596 25.6515 102.421 25.6742 102.281 25.6932C101.952 25.7348 101.651 25.8049 101.378 25.9034C101.109 26.0019 100.893 26.1439 100.73 26.3295C100.571 26.5114 100.491 26.7538 100.491 27.0568C100.491 27.4773 100.647 27.7955 100.957 28.0114C101.268 28.2235 101.664 28.3295 102.145 28.3295ZM114.885 22.9034L113.345 23.1761C113.281 22.9792 113.179 22.7917 113.038 22.6136C112.902 22.4356 112.716 22.2898 112.482 22.1761C112.247 22.0625 111.953 22.0057 111.601 22.0057C111.12 22.0057 110.718 22.1136 110.396 22.3295C110.074 22.5417 109.913 22.8163 109.913 23.1534C109.913 23.4451 110.021 23.6799 110.237 23.858C110.453 24.036 110.802 24.1818 111.283 24.2955L112.669 24.6136C113.472 24.7992 114.071 25.0852 114.464 25.4716C114.858 25.858 115.055 26.3598 115.055 26.9773C115.055 27.5 114.904 27.9659 114.601 28.375C114.302 28.7803 113.883 29.0985 113.345 29.3295C112.811 29.5606 112.192 29.6761 111.487 29.6761C110.51 29.6761 109.713 29.4678 109.095 29.0511C108.478 28.6307 108.099 28.0341 107.959 27.2614L109.601 27.0114C109.703 27.4394 109.913 27.7633 110.232 27.983C110.55 28.1989 110.964 28.3068 111.476 28.3068C112.033 28.3068 112.478 28.1913 112.811 27.9602C113.144 27.7254 113.311 27.4394 113.311 27.1023C113.311 26.8295 113.209 26.6004 113.004 26.4148C112.804 26.2292 112.495 26.089 112.078 25.9943L110.601 25.6705C109.786 25.4848 109.184 25.1894 108.794 24.7841C108.408 24.3788 108.214 23.8655 108.214 23.2443C108.214 22.7292 108.358 22.2784 108.646 21.892C108.934 21.5057 109.332 21.2045 109.839 20.9886C110.347 20.7689 110.929 20.6591 111.584 20.6591C112.527 20.6591 113.269 20.8636 113.811 21.2727C114.353 21.678 114.711 22.2216 114.885 22.9034Z" fill="#212529"/>
<path d="M24 1.5H112V-1.5H24V1.5ZM112 46.5H24V49.5H112V46.5ZM24 46.5C11.5736 46.5 1.5 36.4264 1.5 24H-1.5C-1.5 38.0833 9.91674 49.5 24 49.5V46.5ZM134.5 24C134.5 36.4264 124.426 46.5 112 46.5V49.5C126.083 49.5 137.5 38.0833 137.5 24H134.5ZM112 1.5C124.426 1.5 134.5 11.5736 134.5 24H137.5C137.5 9.91674 126.083 -1.5 112 -1.5V1.5ZM24 -1.5C9.91674 -1.5 -1.5 9.91674 -1.5 24H1.5C1.5 11.5736 11.5736 1.5 24 1.5V-1.5Z" fill="#F3EEF5"/>
</svg>
