<svg width="88" height="48" viewBox="0 0 88 48" fill="none" xmlns="http://www.w3.org/2000/svg">
<path d="M0 24C0 10.7452 10.7452 0 24 0H64C77.2548 0 88 10.7452 88 24C88 37.2548 77.2548 48 64 48H24C10.7452 48 0 37.2548 0 24Z" fill="#FF2253"/>
<path d="M21.1889 19.375V17.8636H30.1946V19.375H26.5639V29.5H24.8139V19.375H21.1889ZM34.4588 29.6761C33.6406 29.6761 32.9266 29.4886 32.3168 29.1136C31.7069 28.7386 31.2334 28.214 30.8963 27.5398C30.5592 26.8655 30.3906 26.0777 30.3906 25.1761C30.3906 24.2708 30.5592 23.4792 30.8963 22.8011C31.2334 22.1231 31.7069 21.5966 32.3168 21.2216C32.9266 20.8466 33.6406 20.6591 34.4588 20.6591C35.277 20.6591 35.991 20.8466 36.6009 21.2216C37.2107 21.5966 37.6842 22.1231 38.0213 22.8011C38.3584 23.4792 38.527 24.2708 38.527 25.1761C38.527 26.0777 38.3584 26.8655 38.0213 27.5398C37.6842 28.214 37.2107 28.7386 36.6009 29.1136C35.991 29.4886 35.277 29.6761 34.4588 29.6761ZM34.4645 28.25C34.9948 28.25 35.4342 28.1098 35.7827 27.8295C36.1312 27.5492 36.3887 27.1761 36.5554 26.7102C36.7259 26.2443 36.8111 25.7311 36.8111 25.1705C36.8111 24.6136 36.7259 24.1023 36.5554 23.6364C36.3887 23.1667 36.1312 22.7898 35.7827 22.5057C35.4342 22.2216 34.9948 22.0795 34.4645 22.0795C33.9304 22.0795 33.4872 22.2216 33.1349 22.5057C32.7865 22.7898 32.527 23.1667 32.3565 23.6364C32.1899 24.1023 32.1065 24.6136 32.1065 25.1705C32.1065 25.7311 32.1899 26.2443 32.3565 26.7102C32.527 27.1761 32.7865 27.5492 33.1349 27.8295C33.4872 28.1098 33.9304 28.25 34.4645 28.25ZM43.6903 29.6705C42.9858 29.6705 42.357 29.4905 41.804 29.1307C41.2547 28.767 40.8229 28.25 40.5085 27.5795C40.1979 26.9053 40.0426 26.0966 40.0426 25.1534C40.0426 24.2102 40.1998 23.4034 40.5142 22.733C40.8324 22.0625 41.268 21.5492 41.821 21.1932C42.3741 20.8371 43.0009 20.6591 43.7017 20.6591C44.2434 20.6591 44.679 20.75 45.0085 20.9318C45.3419 21.1098 45.5994 21.3182 45.7812 21.5568C45.9669 21.7955 46.1108 22.0057 46.2131 22.1875H46.3153V17.8636H48.0142V29.5H46.3551V28.142H46.2131C46.1108 28.3277 45.9631 28.5398 45.7699 28.7784C45.5805 29.017 45.3191 29.2254 44.9858 29.4034C44.6525 29.5814 44.2206 29.6705 43.6903 29.6705ZM44.0653 28.2216C44.554 28.2216 44.9669 28.0928 45.304 27.8352C45.6449 27.5739 45.9025 27.2121 46.0767 26.75C46.2547 26.2879 46.3438 25.75 46.3438 25.1364C46.3438 24.5303 46.2566 24 46.0824 23.5455C45.9081 23.0909 45.6525 22.7367 45.3153 22.483C44.9782 22.2292 44.5616 22.1023 44.0653 22.1023C43.554 22.1023 43.1278 22.2348 42.7869 22.5C42.446 22.7652 42.1884 23.1269 42.0142 23.5852C41.8438 24.0436 41.7585 24.5606 41.7585 25.1364C41.7585 25.7197 41.8456 26.2443 42.0199 26.7102C42.1941 27.1761 42.4517 27.5455 42.7926 27.8182C43.1373 28.0871 43.5616 28.2216 44.0653 28.2216ZM54.1151 29.6761C53.2969 29.6761 52.5829 29.4886 51.973 29.1136C51.3632 28.7386 50.8897 28.214 50.5526 27.5398C50.2154 26.8655 50.0469 26.0777 50.0469 25.1761C50.0469 24.2708 50.2154 23.4792 50.5526 22.8011C50.8897 22.1231 51.3632 21.5966 51.973 21.2216C52.5829 20.8466 53.2969 20.6591 54.1151 20.6591C54.9332 20.6591 55.6473 20.8466 56.2571 21.2216C56.867 21.5966 57.3404 22.1231 57.6776 22.8011C58.0147 23.4792 58.1832 24.2708 58.1832 25.1761C58.1832 26.0777 58.0147 26.8655 57.6776 27.5398C57.3404 28.214 56.867 28.7386 56.2571 29.1136C55.6473 29.4886 54.9332 29.6761 54.1151 29.6761ZM54.1207 28.25C54.651 28.25 55.0904 28.1098 55.4389 27.8295C55.7874 27.5492 56.045 27.1761 56.2116 26.7102C56.3821 26.2443 56.4673 25.7311 56.4673 25.1705C56.4673 24.6136 56.3821 24.1023 56.2116 23.6364C56.045 23.1667 55.7874 22.7898 55.4389 22.5057C55.0904 22.2216 54.651 22.0795 54.1207 22.0795C53.5866 22.0795 53.1435 22.2216 52.7912 22.5057C52.4427 22.7898 52.1832 23.1667 52.0128 23.6364C51.8461 24.1023 51.7628 24.6136 51.7628 25.1705C51.7628 25.7311 51.8461 26.2443 52.0128 26.7102C52.1832 27.1761 52.4427 27.5492 52.7912 27.8295C53.1435 28.1098 53.5866 28.25 54.1207 28.25ZM66.6193 22.9034L65.0795 23.1761C65.0152 22.9792 64.9129 22.7917 64.7727 22.6136C64.6364 22.4356 64.4508 22.2898 64.2159 22.1761C63.9811 22.0625 63.6875 22.0057 63.3352 22.0057C62.8542 22.0057 62.4527 22.1136 62.1307 22.3295C61.8087 22.5417 61.6477 22.8163 61.6477 23.1534C61.6477 23.4451 61.7557 23.6799 61.9716 23.858C62.1875 24.036 62.536 24.1818 63.017 24.2955L64.4034 24.6136C65.2064 24.7992 65.8049 25.0852 66.1989 25.4716C66.5928 25.858 66.7898 26.3598 66.7898 26.9773C66.7898 27.5 66.6383 27.9659 66.3352 28.375C66.036 28.7803 65.6174 29.0985 65.0795 29.3295C64.5455 29.5606 63.9261 29.6761 63.2216 29.6761C62.2443 29.6761 61.447 29.4678 60.8295 29.0511C60.2121 28.6307 59.8333 28.0341 59.6932 27.2614L61.3352 27.0114C61.4375 27.4394 61.6477 27.7633 61.9659 27.983C62.2841 28.1989 62.6989 28.3068 63.2102 28.3068C63.767 28.3068 64.2121 28.1913 64.5455 27.9602C64.8788 27.7254 65.0455 27.4394 65.0455 27.1023C65.0455 26.8295 64.9432 26.6004 64.7386 26.4148C64.5379 26.2292 64.2292 26.089 63.8125 25.9943L62.3352 25.6705C61.5208 25.4848 60.9186 25.1894 60.5284 24.7841C60.142 24.3788 59.9489 23.8655 59.9489 23.2443C59.9489 22.7292 60.0928 22.2784 60.3807 21.892C60.6686 21.5057 61.0663 21.2045 61.5739 20.9886C62.0814 20.7689 62.6629 20.6591 63.3182 20.6591C64.2614 20.6591 65.0038 20.8636 65.5455 21.2727C66.0871 21.678 66.4451 22.2216 66.6193 22.9034Z" fill="#F8F9FA"/>
<path d="M24 1.5H64V-1.5H24V1.5ZM64 46.5H24V49.5H64V46.5ZM24 46.5C11.5736 46.5 1.5 36.4264 1.5 24H-1.5C-1.5 38.0833 9.91674 49.5 24 49.5V46.5ZM86.5 24C86.5 36.4264 76.4264 46.5 64 46.5V49.5C78.0833 49.5 89.5 38.0833 89.5 24H86.5ZM64 1.5C76.4264 1.5 86.5 11.5736 86.5 24H89.5C89.5 9.91674 78.0833 -1.5 64 -1.5V1.5ZM24 -1.5C9.91674 -1.5 -1.5 9.91674 -1.5 24H1.5C1.5 11.5736 11.5736 1.5 24 1.5V-1.5Z" fill="#FF2253"/>
</svg>
