<svg width="170" height="48" viewBox="0 0 170 48" fill="none" xmlns="http://www.w3.org/2000/svg">
<path d="M0 24C0 10.7452 10.7452 0 24 0H146C159.255 0 170 10.7452 170 24C170 37.2548 159.255 48 146 48H24C10.7452 48 0 37.2548 0 24Z" fill="#FFF7F4"/>
<path d="M30.5053 20.7564C26.7324 21.7909 23.9602 23.744 22.2451 26.4954C20.5299 29.2467 22.1787 31.0402 24.9321 30.808C27.6855 30.5758 32.2966 29.0166 35.05 26.9599C37.8035 24.9031 37.6707 23.4435 37.2063 22.3819C36.7419 21.3203 34.6188 19.6284 30.5053 20.7564Z" fill="#FAB13D"/>
<path fill-rule="evenodd" clip-rule="evenodd" d="M21.9089 26.2859C23.6859 23.4355 26.5495 21.4305 30.4004 20.3746C34.6429 19.2112 37.0027 20.9295 37.5687 22.2232C37.8245 22.8079 38.0047 23.5441 37.7099 24.4234C37.421 25.2857 36.6953 26.2247 35.2867 27.2769C33.8692 28.3358 31.9902 29.2557 30.1273 29.9397C28.2647 30.6234 26.3878 31.0824 24.9651 31.2024C23.5153 31.3247 22.2453 30.9226 21.5899 29.9997C20.9188 29.0546 21.0063 27.7338 21.9089 26.2859ZM22.2448 26.4953C23.96 23.744 26.7322 21.7908 30.505 20.7563C34.6186 19.6284 36.7416 21.3203 37.2061 22.3818C37.6705 23.4434 37.8032 24.9031 35.0498 26.9598C32.2964 29.0166 27.6853 30.5757 24.9319 30.808C22.1785 31.0402 20.5296 29.2467 22.2448 26.4953Z" fill="#B7690D"/>
<path d="M25.2054 23.9191C23.6556 24.8676 22.6707 26.0968 22.2605 27.5458C21.8503 28.9948 22.8174 29.5822 24.016 29.1233C25.2145 28.6643 25.4912 27.2593 26.4543 25.9863C27.4174 24.7133 28.4592 24.2306 28.4592 23.5325C28.4592 22.9939 26.8953 22.885 25.2054 23.9191Z" fill="#FCC66F"/>
<path fill-rule="evenodd" clip-rule="evenodd" d="M24.6207 25.3271C24.7827 25.4739 24.795 25.7243 24.6482 25.8863C24.0508 26.5455 23.7945 27.1126 23.5968 27.5499C23.5727 27.6033 23.5495 27.6547 23.5266 27.7041C23.4348 27.9024 23.1995 27.9888 23.0011 27.897C22.8027 27.8051 22.7164 27.5698 22.8082 27.3715C22.8295 27.3255 22.8517 27.2761 22.8754 27.2237C23.0759 26.7787 23.3776 26.1094 24.0616 25.3546C24.2084 25.1926 24.4587 25.1803 24.6207 25.3271Z" fill="#FFDFAD"/>
<path fill-rule="evenodd" clip-rule="evenodd" d="M23.5195 30.733C26.5584 30.1225 30.5432 28.5982 33.097 26.6905C36.172 24.3936 36.0238 22.7634 35.5051 21.5779C35.3719 21.2736 35.1168 20.9229 34.7333 20.5909C36.1378 20.9666 36.9417 21.7767 37.2065 22.3819C37.6709 23.4435 37.8036 24.9031 35.0502 26.9599C32.2968 29.0166 27.6857 30.5758 24.9323 30.808C24.4179 30.8514 23.9421 30.8241 23.5195 30.733Z" fill="#EDA024"/>
<path d="M27.5863 27.0925C26.8432 25.6329 24.6449 24.8699 23.6387 24.6708C24.0102 24.0605 24.7666 23.554 25.0983 23.3771C26.7172 24.3856 27.4315 26.2742 27.5863 27.0925Z" fill="#D08814"/>
<path d="M30.9279 25.7769C30.0601 23.8019 28.059 22.2653 27.0527 22.0663C27.6961 21.5277 28.9503 21.2408 29.2821 21.0638C31.1374 22.0663 30.7731 24.9586 30.9279 25.7769Z" fill="#A56112"/>
<path d="M34.1894 23.5026C33.3814 21.4827 32.3976 21.0588 31.5311 20.5098C31.9899 20.3157 33.1727 20.3608 33.546 20.3157C34.324 21.3929 34.324 22.2607 34.1894 23.5026Z" fill="#9C5807"/>
<path fill-rule="evenodd" clip-rule="evenodd" d="M24.9439 23.3935C24.967 23.2867 25.0723 23.2187 25.1791 23.2418C25.6179 23.3364 26.1747 23.6933 26.6857 24.2893C27.2011 24.8905 27.6826 25.7488 27.9628 26.8736C27.9892 26.9796 27.9246 27.087 27.8186 27.1135C27.7125 27.1399 27.6051 27.0753 27.5787 26.9693C27.3128 25.902 26.8591 25.0996 26.3852 24.5469C25.9067 23.9889 25.42 23.6987 25.0957 23.6287C24.9888 23.6057 24.9209 23.5004 24.9439 23.3935Z" fill="#FFDFAC"/>
<path fill-rule="evenodd" clip-rule="evenodd" d="M29.3886 21.0262C29.4507 20.9362 29.574 20.9136 29.6639 20.9757C30.0236 21.2241 30.4352 21.7886 30.7558 22.573C31.0797 23.3654 31.3204 24.4045 31.3204 25.6272C31.3204 25.7365 31.2318 25.8251 31.1225 25.8251C31.0132 25.8251 30.9245 25.7365 30.9245 25.6272C30.9245 24.456 30.6939 23.4677 30.3894 22.7228C30.0817 21.9699 29.7077 21.487 29.439 21.3015C29.349 21.2394 29.3265 21.1161 29.3886 21.0262Z" fill="#FFDFAC"/>
<path fill-rule="evenodd" clip-rule="evenodd" d="M33.543 20.2873C33.6124 20.2028 33.7371 20.1906 33.8216 20.26C34.1817 20.5558 34.4365 21.0585 34.5729 21.6233C34.7103 22.1927 34.7337 22.8501 34.6083 23.4813C34.587 23.5885 34.4828 23.6581 34.3756 23.6368C34.2684 23.6155 34.1987 23.5113 34.22 23.4041C34.334 22.8308 34.3125 22.2314 34.1881 21.7161C34.0626 21.1962 33.8386 20.7862 33.5703 20.5658C33.4859 20.4964 33.4737 20.3717 33.543 20.2873Z" fill="#FFDFAC"/>
<path d="M34.1402 26.0852C34.0894 26.2927 33.924 26.4304 33.7709 26.3929C33.6178 26.3554 33.5348 26.1568 33.5857 25.9493C33.6365 25.7418 33.8019 25.604 33.955 25.6416C34.1082 25.6791 34.1911 25.8777 34.1402 26.0852Z" fill="#D48A15"/>
<path d="M32.7702 26.6064C32.7289 26.7749 32.5946 26.8868 32.4702 26.8563C32.3458 26.8259 32.2784 26.6645 32.3197 26.496C32.361 26.3274 32.4954 26.2155 32.6198 26.246C32.7442 26.2765 32.8115 26.4378 32.7702 26.6064Z" fill="#D48A15"/>
<path d="M33.7507 27.115C33.7094 27.2836 33.5751 27.3955 33.4507 27.365C33.3263 27.3345 33.2589 27.1732 33.3002 27.0046C33.3415 26.8361 33.4758 26.7242 33.6002 26.7547C33.7246 26.7851 33.792 26.9465 33.7507 27.115Z" fill="#D48A15"/>
<path d="M33.4011 25.2304C33.3598 25.3989 33.2255 25.5108 33.1011 25.4804C32.9767 25.4499 32.9093 25.2885 32.9506 25.12C32.9919 24.9515 33.1262 24.8395 33.2506 24.87C33.375 24.9005 33.4424 25.0618 33.4011 25.2304Z" fill="#D48A15"/>
<path d="M35.1052 25.6609C35.0639 25.8295 34.9296 25.9414 34.8052 25.9109C34.6808 25.8804 34.6134 25.7191 34.6547 25.5505C34.696 25.382 34.8303 25.2701 34.9547 25.3006C35.0791 25.331 35.1465 25.4924 35.1052 25.6609Z" fill="#D48A15"/>
<path d="M34.6219 24.9712C34.5754 25.1613 34.4239 25.2875 34.2836 25.2531C34.1433 25.2187 34.0673 25.0368 34.1139 24.8467C34.1605 24.6566 34.312 24.5304 34.4522 24.5648C34.5925 24.5992 34.6685 24.7811 34.6219 24.9712Z" fill="#D48A15"/>
<path d="M36.1483 25.0811C36.1017 25.2711 35.9502 25.3973 35.81 25.363C35.6697 25.3286 35.5937 25.1466 35.6403 24.9566C35.6869 24.7665 35.8383 24.6403 35.9786 24.6747C36.1189 24.709 36.1949 24.891 36.1483 25.0811Z" fill="#D48A15"/>
<path d="M35.7713 24.2683C35.7248 24.4584 35.5733 24.5846 35.433 24.5502C35.2927 24.5158 35.2167 24.3339 35.2633 24.1438C35.3099 23.9538 35.4614 23.8276 35.6017 23.8619C35.742 23.8963 35.8179 24.0782 35.7713 24.2683Z" fill="#D48A15"/>
<path d="M37.0887 24.1393C37.0421 24.3293 36.8907 24.4556 36.7504 24.4212C36.6101 24.3868 36.5341 24.2049 36.5807 24.0148C36.6273 23.8247 36.7788 23.6985 36.919 23.7329C37.0593 23.7673 37.1353 23.9492 37.0887 24.1393Z" fill="#D48A15"/>
<path d="M35.7226 25.9125C35.6921 26.0369 35.593 26.1195 35.5012 26.097C35.4094 26.0745 35.3596 25.9554 35.3901 25.8311C35.4206 25.7067 35.5197 25.6241 35.6115 25.6466C35.7033 25.6691 35.7531 25.7881 35.7226 25.9125Z" fill="#D48A15"/>
<path d="M34.6894 26.6906C34.6589 26.815 34.5598 26.8976 34.468 26.8751C34.3762 26.8526 34.3264 26.7335 34.3569 26.6091C34.3874 26.4847 34.4865 26.4021 34.5783 26.4246C34.6701 26.4471 34.7199 26.5662 34.6894 26.6906Z" fill="#D48A15"/>
<path d="M31.8544 28.2092C31.8239 28.3335 31.7248 28.4161 31.633 28.3936C31.5412 28.3711 31.4915 28.2521 31.522 28.1277C31.5524 28.0033 31.6516 27.9207 31.7434 27.9432C31.8352 27.9657 31.8849 28.0848 31.8544 28.2092Z" fill="#D48A15"/>
<path d="M32.9306 27.461C32.9001 27.5854 32.801 27.668 32.7092 27.6455C32.6174 27.623 32.5677 27.5039 32.5981 27.3795C32.6286 27.2551 32.7277 27.1725 32.8196 27.195C32.9114 27.2175 32.9611 27.3366 32.9306 27.461Z" fill="#D48A15"/>
<path d="M32.1356 27.3092C32.1108 27.4104 32.0302 27.4775 31.9556 27.4592C31.8809 27.4409 31.8405 27.3441 31.8653 27.243C31.8901 27.1418 31.9707 27.0746 32.0453 27.0929C32.12 27.1112 32.1604 27.2081 32.1356 27.3092Z" fill="#D48A15"/>
<path d="M32.4882 25.7608C32.4577 25.8852 32.3586 25.9678 32.2668 25.9453C32.175 25.9228 32.1253 25.8037 32.1557 25.6793C32.1862 25.5549 32.2854 25.4723 32.3772 25.4948C32.469 25.5173 32.5187 25.6364 32.4882 25.7608Z" fill="#D48A15"/>
<path d="M34.0292 24.4687C33.9987 24.5931 33.8996 24.6757 33.8078 24.6532C33.716 24.6307 33.6663 24.5116 33.6968 24.3872C33.7272 24.2628 33.8264 24.1802 33.9182 24.2027C34.01 24.2252 34.0597 24.3443 34.0292 24.4687Z" fill="#D48A15"/>
<path d="M35.0458 23.6454C35.0153 23.7698 34.9162 23.8524 34.8244 23.8299C34.7326 23.8074 34.6829 23.6883 34.7134 23.564C34.7438 23.4396 34.843 23.357 34.9348 23.3795C35.0266 23.402 35.0763 23.521 35.0458 23.6454Z" fill="#D48A15"/>
<path d="M36.1767 23.4455C36.1462 23.5699 36.0471 23.6525 35.9553 23.63C35.8635 23.6075 35.8137 23.4884 35.8442 23.364C35.8747 23.2396 35.9738 23.157 36.0656 23.1795C36.1575 23.202 36.2072 23.3211 36.1767 23.4455Z" fill="#D48A15"/>
<path d="M36.8896 23.3639C36.8591 23.4883 36.76 23.5709 36.6682 23.5484C36.5764 23.5259 36.5266 23.4069 36.5571 23.2825C36.5876 23.1581 36.6867 23.0755 36.7785 23.098C36.8703 23.1205 36.9201 23.2396 36.8896 23.3639Z" fill="#D48A15"/>
<path d="M55.419 29.5V17.8636H59.5668C60.4721 17.8636 61.2221 18.0284 61.8168 18.358C62.4115 18.6875 62.8565 19.1383 63.152 19.7102C63.4474 20.2784 63.5952 20.9186 63.5952 21.6307C63.5952 22.3466 63.4455 22.9905 63.1463 23.5625C62.8509 24.1307 62.4039 24.5814 61.8054 24.9148C61.2107 25.2443 60.4626 25.4091 59.5611 25.4091H56.7088V23.9205H59.402C59.974 23.9205 60.438 23.822 60.794 23.625C61.1501 23.4242 61.4115 23.1515 61.5781 22.8068C61.7448 22.4621 61.8281 22.0701 61.8281 21.6307C61.8281 21.1913 61.7448 20.8011 61.5781 20.4602C61.4115 20.1193 61.1482 19.8523 60.7884 19.6591C60.4323 19.4659 59.9626 19.3693 59.3793 19.3693H57.1747V29.5H55.419ZM67.9787 29.6932C67.4257 29.6932 66.9257 29.5909 66.4787 29.3864C66.0317 29.178 65.6776 28.8769 65.4162 28.483C65.1586 28.089 65.0298 27.6061 65.0298 27.0341C65.0298 26.5417 65.1245 26.1364 65.3139 25.8182C65.5033 25.5 65.759 25.2481 66.081 25.0625C66.4029 24.8769 66.7628 24.7367 67.1605 24.642C67.5582 24.5473 67.9635 24.4754 68.3764 24.4261C68.8991 24.3655 69.3234 24.3163 69.6491 24.2784C69.9749 24.2367 70.2116 24.1705 70.3594 24.0795C70.5071 23.9886 70.581 23.8409 70.581 23.6364V23.5966C70.581 23.1004 70.4408 22.7159 70.1605 22.4432C69.884 22.1705 69.4711 22.0341 68.9219 22.0341C68.3499 22.0341 67.8991 22.161 67.5696 22.4148C67.2438 22.6648 67.0185 22.9432 66.8935 23.25L65.2969 22.8864C65.4863 22.3561 65.7628 21.928 66.1264 21.6023C66.4938 21.2727 66.9162 21.0341 67.3935 20.8864C67.8707 20.7348 68.3726 20.6591 68.8991 20.6591C69.2476 20.6591 69.617 20.7008 70.0071 20.7841C70.401 20.8636 70.7685 21.0114 71.1094 21.2273C71.4541 21.4432 71.7363 21.7519 71.956 22.1534C72.1757 22.5511 72.2855 23.0682 72.2855 23.7045V29.5H70.6264V28.3068H70.5582C70.4484 28.5265 70.2836 28.7424 70.0639 28.9545C69.8442 29.1667 69.562 29.3428 69.2173 29.483C68.8726 29.6231 68.4598 29.6932 67.9787 29.6932ZM68.348 28.3295C68.8177 28.3295 69.2192 28.2367 69.5526 28.0511C69.8897 27.8655 70.1454 27.6231 70.3196 27.3239C70.4976 27.0208 70.5866 26.697 70.5866 26.3523V25.2273C70.526 25.2879 70.4086 25.3447 70.2344 25.3977C70.0639 25.447 69.8688 25.4905 69.6491 25.5284C69.4295 25.5625 69.2154 25.5947 69.0071 25.625C68.7988 25.6515 68.6245 25.6742 68.4844 25.6932C68.1548 25.7348 67.8537 25.8049 67.581 25.9034C67.312 26.0019 67.0961 26.1439 66.9332 26.3295C66.7741 26.5114 66.6946 26.7538 66.6946 27.0568C66.6946 27.4773 66.8499 27.7955 67.1605 28.0114C67.4711 28.2235 67.867 28.3295 68.348 28.3295ZM76.2472 24.3182V29.5H74.5483V20.7727H76.179V22.1932H76.2869C76.4877 21.7311 76.8021 21.3598 77.2301 21.0795C77.6619 20.7992 78.2055 20.6591 78.8608 20.6591C79.4555 20.6591 79.9763 20.7841 80.4233 21.0341C80.8703 21.2803 81.2169 21.6477 81.4631 22.1364C81.7093 22.625 81.8324 23.2292 81.8324 23.9489V29.5H80.1335V24.1534C80.1335 23.5208 79.9688 23.0265 79.6392 22.6705C79.3097 22.3106 78.857 22.1307 78.2812 22.1307C77.8873 22.1307 77.5369 22.2159 77.2301 22.3864C76.9271 22.5568 76.6866 22.8068 76.5085 23.1364C76.3343 23.4621 76.2472 23.8561 76.2472 24.3182ZM84.1108 29.5V20.7727H85.8097V29.5H84.1108ZM84.9688 19.4261C84.6733 19.4261 84.4195 19.3277 84.2074 19.1307C83.9991 18.9299 83.8949 18.6913 83.8949 18.4148C83.8949 18.1345 83.9991 17.8958 84.2074 17.6989C84.4195 17.4981 84.6733 17.3977 84.9688 17.3977C85.2642 17.3977 85.5161 17.4981 85.7244 17.6989C85.9366 17.8958 86.0426 18.1345 86.0426 18.4148C86.0426 18.6913 85.9366 18.9299 85.7244 19.1307C85.5161 19.3277 85.2642 19.4261 84.9688 19.4261ZM92.2486 20.7727V22.1364H87.3168V20.7727H92.2486ZM88.669 29.5V19.7614C88.669 19.2159 88.7884 18.7633 89.027 18.4034C89.2656 18.0398 89.5819 17.7689 89.9759 17.5909C90.3698 17.4091 90.7978 17.3182 91.2599 17.3182C91.6009 17.3182 91.8925 17.3466 92.1349 17.4034C92.3774 17.4564 92.5573 17.5057 92.6747 17.5511L92.277 18.9261C92.1974 18.9034 92.0952 18.8769 91.9702 18.8466C91.8452 18.8125 91.6937 18.7955 91.5156 18.7955C91.1027 18.7955 90.8073 18.8977 90.6293 19.1023C90.455 19.3068 90.3679 19.6023 90.3679 19.9886V29.5H88.669ZM94.0014 29.5V20.7727H95.7003V29.5H94.0014ZM94.8594 19.4261C94.5639 19.4261 94.3101 19.3277 94.098 19.1307C93.8897 18.9299 93.7855 18.6913 93.7855 18.4148C93.7855 18.1345 93.8897 17.8958 94.098 17.6989C94.3101 17.4981 94.5639 17.3977 94.8594 17.3977C95.1548 17.3977 95.4067 17.4981 95.6151 17.6989C95.8272 17.8958 95.9332 18.1345 95.9332 18.4148C95.9332 18.6913 95.8272 18.9299 95.6151 19.1307C95.4067 19.3277 95.1548 19.4261 94.8594 19.4261ZM101.662 29.6761C100.817 29.6761 100.09 29.4848 99.4801 29.1023C98.8741 28.7159 98.4081 28.1837 98.0824 27.5057C97.7566 26.8277 97.5938 26.0511 97.5938 25.1761C97.5938 24.2898 97.7604 23.5076 98.0938 22.8295C98.4271 22.1477 98.8968 21.6155 99.5028 21.233C100.109 20.8504 100.823 20.6591 101.645 20.6591C102.308 20.6591 102.899 20.7822 103.418 21.0284C103.937 21.2708 104.355 21.6117 104.673 22.0511C104.995 22.4905 105.187 23.0038 105.247 23.5909H103.594C103.503 23.1818 103.295 22.8295 102.969 22.5341C102.647 22.2386 102.215 22.0909 101.673 22.0909C101.2 22.0909 100.785 22.2159 100.429 22.4659C100.077 22.7121 99.8021 23.0644 99.6051 23.5227C99.4081 23.9773 99.3097 24.5152 99.3097 25.1364C99.3097 25.7727 99.4063 26.322 99.5994 26.7841C99.7926 27.2462 100.065 27.6042 100.418 27.858C100.774 28.1117 101.192 28.2386 101.673 28.2386C101.995 28.2386 102.287 28.1799 102.548 28.0625C102.813 27.9413 103.035 27.7689 103.213 27.5455C103.395 27.322 103.522 27.053 103.594 26.7386H105.247C105.187 27.303 105.003 27.8068 104.696 28.25C104.389 28.6932 103.978 29.0417 103.463 29.2955C102.952 29.5492 102.351 29.6761 101.662 29.6761ZM109.604 29.6932C109.051 29.6932 108.551 29.5909 108.104 29.3864C107.657 29.178 107.303 28.8769 107.041 28.483C106.784 28.089 106.655 27.6061 106.655 27.0341C106.655 26.5417 106.75 26.1364 106.939 25.8182C107.128 25.5 107.384 25.2481 107.706 25.0625C108.028 24.8769 108.388 24.7367 108.786 24.642C109.183 24.5473 109.589 24.4754 110.001 24.4261C110.524 24.3655 110.948 24.3163 111.274 24.2784C111.6 24.2367 111.837 24.1705 111.984 24.0795C112.132 23.9886 112.206 23.8409 112.206 23.6364V23.5966C112.206 23.1004 112.066 22.7159 111.786 22.4432C111.509 22.1705 111.096 22.0341 110.547 22.0341C109.975 22.0341 109.524 22.161 109.195 22.4148C108.869 22.6648 108.643 22.9432 108.518 23.25L106.922 22.8864C107.111 22.3561 107.388 21.928 107.751 21.6023C108.119 21.2727 108.541 21.0341 109.018 20.8864C109.496 20.7348 109.998 20.6591 110.524 20.6591C110.873 20.6591 111.242 20.7008 111.632 20.7841C112.026 20.8636 112.393 21.0114 112.734 21.2273C113.079 21.4432 113.361 21.7519 113.581 22.1534C113.801 22.5511 113.911 23.0682 113.911 23.7045V29.5H112.251V28.3068H112.183C112.073 28.5265 111.909 28.7424 111.689 28.9545C111.469 29.1667 111.187 29.3428 110.842 29.483C110.498 29.6231 110.085 29.6932 109.604 29.6932ZM109.973 28.3295C110.443 28.3295 110.844 28.2367 111.178 28.0511C111.515 27.8655 111.77 27.6231 111.945 27.3239C112.123 27.0208 112.212 26.697 112.212 26.3523V25.2273C112.151 25.2879 112.034 25.3447 111.859 25.3977C111.689 25.447 111.494 25.4905 111.274 25.5284C111.054 25.5625 110.84 25.5947 110.632 25.625C110.424 25.6515 110.25 25.6742 110.109 25.6932C109.78 25.7348 109.479 25.8049 109.206 25.9034C108.937 26.0019 108.721 26.1439 108.558 26.3295C108.399 26.5114 108.32 26.7538 108.32 27.0568C108.32 27.4773 108.475 27.7955 108.786 28.0114C109.096 28.2235 109.492 28.3295 109.973 28.3295ZM119.44 29.6705C118.736 29.6705 118.107 29.4905 117.554 29.1307C117.005 28.767 116.573 28.25 116.259 27.5795C115.948 26.9053 115.793 26.0966 115.793 25.1534C115.793 24.2102 115.95 23.4034 116.264 22.733C116.582 22.0625 117.018 21.5492 117.571 21.1932C118.124 20.8371 118.751 20.6591 119.452 20.6591C119.993 20.6591 120.429 20.75 120.759 20.9318C121.092 21.1098 121.349 21.3182 121.531 21.5568C121.717 21.7955 121.861 22.0057 121.963 22.1875H122.065V17.8636H123.764V29.5H122.105V28.142H121.963C121.861 28.3277 121.713 28.5398 121.52 28.7784C121.33 29.017 121.069 29.2254 120.736 29.4034C120.402 29.5814 119.971 29.6705 119.44 29.6705ZM119.815 28.2216C120.304 28.2216 120.717 28.0928 121.054 27.8352C121.395 27.5739 121.652 27.2121 121.827 26.75C122.005 26.2879 122.094 25.75 122.094 25.1364C122.094 24.5303 122.007 24 121.832 23.5455C121.658 23.0909 121.402 22.7367 121.065 22.483C120.728 22.2292 120.312 22.1023 119.815 22.1023C119.304 22.1023 118.878 22.2348 118.537 22.5C118.196 22.7652 117.938 23.1269 117.764 23.5852C117.594 24.0436 117.509 24.5606 117.509 25.1364C117.509 25.7197 117.596 26.2443 117.77 26.7102C117.944 27.1761 118.202 27.5455 118.543 27.8182C118.887 28.0871 119.312 28.2216 119.815 28.2216ZM129.865 29.6761C129.047 29.6761 128.333 29.4886 127.723 29.1136C127.113 28.7386 126.64 28.214 126.303 27.5398C125.965 26.8655 125.797 26.0777 125.797 25.1761C125.797 24.2708 125.965 23.4792 126.303 22.8011C126.64 22.1231 127.113 21.5966 127.723 21.2216C128.333 20.8466 129.047 20.6591 129.865 20.6591C130.683 20.6591 131.397 20.8466 132.007 21.2216C132.617 21.5966 133.09 22.1231 133.428 22.8011C133.765 23.4792 133.933 24.2708 133.933 25.1761C133.933 26.0777 133.765 26.8655 133.428 27.5398C133.09 28.214 132.617 28.7386 132.007 29.1136C131.397 29.4886 130.683 29.6761 129.865 29.6761ZM129.871 28.25C130.401 28.25 130.84 28.1098 131.189 27.8295C131.537 27.5492 131.795 27.1761 131.962 26.7102C132.132 26.2443 132.217 25.7311 132.217 25.1705C132.217 24.6136 132.132 24.1023 131.962 23.6364C131.795 23.1667 131.537 22.7898 131.189 22.5057C130.84 22.2216 130.401 22.0795 129.871 22.0795C129.337 22.0795 128.893 22.2216 128.541 22.5057C128.193 22.7898 127.933 23.1667 127.763 23.6364C127.596 24.1023 127.513 24.6136 127.513 25.1705C127.513 25.7311 127.596 26.2443 127.763 26.7102C127.933 27.1761 128.193 27.5492 128.541 27.8295C128.893 28.1098 129.337 28.25 129.871 28.25ZM135.83 29.5V20.7727H137.472V22.1591H137.562C137.722 21.6894 138.002 21.3201 138.403 21.0511C138.809 20.7784 139.267 20.642 139.778 20.642C139.884 20.642 140.009 20.6458 140.153 20.6534C140.301 20.661 140.417 20.6705 140.5 20.6818V22.3068C140.432 22.2879 140.311 22.267 140.136 22.2443C139.962 22.2178 139.788 22.2045 139.614 22.2045C139.212 22.2045 138.854 22.2898 138.54 22.4602C138.229 22.6269 137.983 22.8598 137.801 23.1591C137.619 23.4545 137.528 23.7917 137.528 24.1705V29.5H135.83ZM144.432 29.6932C143.879 29.6932 143.379 29.5909 142.932 29.3864C142.485 29.178 142.131 28.8769 141.869 28.483C141.612 28.089 141.483 27.6061 141.483 27.0341C141.483 26.5417 141.578 26.1364 141.767 25.8182C141.956 25.5 142.212 25.2481 142.534 25.0625C142.856 24.8769 143.216 24.7367 143.614 24.642C144.011 24.5473 144.417 24.4754 144.83 24.4261C145.352 24.3655 145.777 24.3163 146.102 24.2784C146.428 24.2367 146.665 24.1705 146.812 24.0795C146.96 23.9886 147.034 23.8409 147.034 23.6364V23.5966C147.034 23.1004 146.894 22.7159 146.614 22.4432C146.337 22.1705 145.924 22.0341 145.375 22.0341C144.803 22.0341 144.352 22.161 144.023 22.4148C143.697 22.6648 143.472 22.9432 143.347 23.25L141.75 22.8864C141.939 22.3561 142.216 21.928 142.58 21.6023C142.947 21.2727 143.369 21.0341 143.847 20.8864C144.324 20.7348 144.826 20.6591 145.352 20.6591C145.701 20.6591 146.07 20.7008 146.46 20.7841C146.854 20.8636 147.222 21.0114 147.562 21.2273C147.907 21.4432 148.189 21.7519 148.409 22.1534C148.629 22.5511 148.739 23.0682 148.739 23.7045V29.5H147.08V28.3068H147.011C146.902 28.5265 146.737 28.7424 146.517 28.9545C146.297 29.1667 146.015 29.3428 145.67 29.483C145.326 29.6231 144.913 29.6932 144.432 29.6932ZM144.801 28.3295C145.271 28.3295 145.672 28.2367 146.006 28.0511C146.343 27.8655 146.598 27.6231 146.773 27.3239C146.951 27.0208 147.04 26.697 147.04 26.3523V25.2273C146.979 25.2879 146.862 25.3447 146.688 25.3977C146.517 25.447 146.322 25.4905 146.102 25.5284C145.883 25.5625 145.669 25.5947 145.46 25.625C145.252 25.6515 145.078 25.6742 144.938 25.6932C144.608 25.7348 144.307 25.8049 144.034 25.9034C143.765 26.0019 143.549 26.1439 143.386 26.3295C143.227 26.5114 143.148 26.7538 143.148 27.0568C143.148 27.4773 143.303 27.7955 143.614 28.0114C143.924 28.2235 144.32 28.3295 144.801 28.3295Z" fill="#212529"/>
<path d="M24 1.5H146V-1.5H24V1.5ZM146 46.5H24V49.5H146V46.5ZM24 46.5C11.5736 46.5 1.5 36.4264 1.5 24H-1.5C-1.5 38.0833 9.91674 49.5 24 49.5V46.5ZM168.5 24C168.5 36.4264 158.426 46.5 146 46.5V49.5C160.083 49.5 171.5 38.0833 171.5 24H168.5ZM146 1.5C158.426 1.5 168.5 11.5736 168.5 24H171.5C171.5 9.91674 160.083 -1.5 146 -1.5V1.5ZM24 -1.5C9.91674 -1.5 -1.5 9.91674 -1.5 24H1.5C1.5 11.5736 11.5736 1.5 24 1.5V-1.5Z" fill="#FFF7F4"/>
</svg>
