<svg width="123" height="48" viewBox="0 0 123 48" fill="none" xmlns="http://www.w3.org/2000/svg">
<path d="M0 24C0 10.7452 10.7452 0 24 0H99C112.255 0 123 10.7452 123 24C123 37.2548 112.255 48 99 48H24C10.7452 48 0 37.2548 0 24Z" fill="#FFF1F4"/>
<path d="M55.4972 29.5V17.8636H62.7131V19.375H57.2528V22.9205H62.196V24.4261H57.2528V29.5H55.4972ZM64.6264 29.5V20.7727H66.2685V22.1591H66.3594C66.5185 21.6894 66.7988 21.3201 67.2003 21.0511C67.6056 20.7784 68.0639 20.642 68.5753 20.642C68.6813 20.642 68.8063 20.6458 68.9503 20.6534C69.098 20.661 69.2135 20.6705 69.2969 20.6818V22.3068C69.2287 22.2879 69.1075 22.267 68.9332 22.2443C68.759 22.2178 68.5848 22.2045 68.4105 22.2045C68.009 22.2045 67.651 22.2898 67.3366 22.4602C67.026 22.6269 66.7798 22.8598 66.598 23.1591C66.4162 23.4545 66.3253 23.7917 66.3253 24.1705V29.5H64.6264ZM76.2955 25.8807V20.7727H78V29.5H76.3295V27.9886H76.2386C76.0379 28.4545 75.7159 28.8428 75.2727 29.1534C74.8333 29.4602 74.286 29.6136 73.6307 29.6136C73.0701 29.6136 72.5739 29.4905 72.142 29.2443C71.714 28.9943 71.3769 28.625 71.1307 28.1364C70.8883 27.6477 70.767 27.0436 70.767 26.3239V20.7727H72.4659V26.1193C72.4659 26.714 72.6307 27.1875 72.9602 27.5398C73.2898 27.892 73.7178 28.0682 74.2443 28.0682C74.5625 28.0682 74.8788 27.9886 75.1932 27.8295C75.5114 27.6705 75.7746 27.4299 75.983 27.108C76.1951 26.786 76.2992 26.3769 76.2955 25.8807ZM84.3565 20.7727V22.1364H79.5895V20.7727H84.3565ZM80.8679 18.6818H82.5668V26.9375C82.5668 27.267 82.616 27.5152 82.7145 27.6818C82.813 27.8447 82.9399 27.9564 83.0952 28.017C83.2543 28.0739 83.4266 28.1023 83.6122 28.1023C83.7486 28.1023 83.8679 28.0928 83.9702 28.0739C84.0724 28.0549 84.152 28.0398 84.2088 28.0284L84.5156 29.4318C84.4171 29.4697 84.277 29.5076 84.0952 29.5455C83.9134 29.5871 83.6861 29.6098 83.4134 29.6136C82.9664 29.6212 82.5497 29.5417 82.1634 29.375C81.777 29.2083 81.4645 28.9508 81.2259 28.6023C80.9872 28.2538 80.8679 27.8163 80.8679 27.2898V18.6818ZM88.7756 29.6932C88.2225 29.6932 87.7225 29.5909 87.2756 29.3864C86.8286 29.178 86.4744 28.8769 86.2131 28.483C85.9555 28.089 85.8267 27.6061 85.8267 27.0341C85.8267 26.5417 85.9214 26.1364 86.1108 25.8182C86.3002 25.5 86.5559 25.2481 86.8778 25.0625C87.1998 24.8769 87.5597 24.7367 87.9574 24.642C88.3551 24.5473 88.7604 24.4754 89.1733 24.4261C89.696 24.3655 90.1203 24.3163 90.446 24.2784C90.7718 24.2367 91.0085 24.1705 91.1562 24.0795C91.304 23.9886 91.3778 23.8409 91.3778 23.6364V23.5966C91.3778 23.1004 91.2377 22.7159 90.9574 22.4432C90.6809 22.1705 90.268 22.0341 89.7188 22.0341C89.1468 22.0341 88.696 22.161 88.3665 22.4148C88.0407 22.6648 87.8153 22.9432 87.6903 23.25L86.0938 22.8864C86.2831 22.3561 86.5597 21.928 86.9233 21.6023C87.2907 21.2727 87.7131 21.0341 88.1903 20.8864C88.6676 20.7348 89.1695 20.6591 89.696 20.6591C90.0445 20.6591 90.4138 20.7008 90.804 20.7841C91.1979 20.8636 91.5653 21.0114 91.9062 21.2273C92.2509 21.4432 92.5331 21.7519 92.7528 22.1534C92.9725 22.5511 93.0824 23.0682 93.0824 23.7045V29.5H91.4233V28.3068H91.3551C91.2453 28.5265 91.0805 28.7424 90.8608 28.9545C90.6411 29.1667 90.3589 29.3428 90.0142 29.483C89.6695 29.6231 89.2566 29.6932 88.7756 29.6932ZM89.1449 28.3295C89.6146 28.3295 90.0161 28.2367 90.3494 28.0511C90.6866 27.8655 90.9422 27.6231 91.1165 27.3239C91.2945 27.0208 91.3835 26.697 91.3835 26.3523V25.2273C91.3229 25.2879 91.2055 25.3447 91.0312 25.3977C90.8608 25.447 90.6657 25.4905 90.446 25.5284C90.2263 25.5625 90.0123 25.5947 89.804 25.625C89.5956 25.6515 89.4214 25.6742 89.2812 25.6932C88.9517 25.7348 88.6506 25.8049 88.3778 25.9034C88.1089 26.0019 87.893 26.1439 87.7301 26.3295C87.571 26.5114 87.4915 26.7538 87.4915 27.0568C87.4915 27.4773 87.6468 27.7955 87.9574 28.0114C88.268 28.2235 88.6638 28.3295 89.1449 28.3295ZM101.885 22.9034L100.345 23.1761C100.281 22.9792 100.179 22.7917 100.038 22.6136C99.902 22.4356 99.7164 22.2898 99.4815 22.1761C99.2467 22.0625 98.9531 22.0057 98.6009 22.0057C98.1198 22.0057 97.7183 22.1136 97.3963 22.3295C97.0743 22.5417 96.9134 22.8163 96.9134 23.1534C96.9134 23.4451 97.0213 23.6799 97.2372 23.858C97.4531 24.036 97.8016 24.1818 98.2827 24.2955L99.669 24.6136C100.472 24.7992 101.071 25.0852 101.464 25.4716C101.858 25.858 102.055 26.3598 102.055 26.9773C102.055 27.5 101.904 27.9659 101.601 28.375C101.302 28.7803 100.883 29.0985 100.345 29.3295C99.8111 29.5606 99.1918 29.6761 98.4872 29.6761C97.5099 29.6761 96.7126 29.4678 96.0952 29.0511C95.4777 28.6307 95.099 28.0341 94.9588 27.2614L96.6009 27.0114C96.7031 27.4394 96.9134 27.7633 97.2315 27.983C97.5497 28.1989 97.9645 28.3068 98.4759 28.3068C99.0327 28.3068 99.4777 28.1913 99.8111 27.9602C100.144 27.7254 100.311 27.4394 100.311 27.1023C100.311 26.8295 100.209 26.6004 100.004 26.4148C99.8035 26.2292 99.4948 26.089 99.0781 25.9943L97.6009 25.6705C96.7865 25.4848 96.1842 25.1894 95.794 24.7841C95.4077 24.3788 95.2145 23.8655 95.2145 23.2443C95.2145 22.7292 95.3584 22.2784 95.6463 21.892C95.9342 21.5057 96.3319 21.2045 96.8395 20.9886C97.3471 20.7689 97.9285 20.6591 98.5838 20.6591C99.527 20.6591 100.269 20.8636 100.811 21.2727C101.353 21.678 101.711 22.2216 101.885 22.9034Z" fill="#212529"/>
<path d="M24 1.5H99V-1.5H24V1.5ZM99 46.5H24V49.5H99V46.5ZM24 46.5C11.5736 46.5 1.5 36.4264 1.5 24H-1.5C-1.5 38.0833 9.91674 49.5 24 49.5V46.5ZM121.5 24C121.5 36.4264 111.426 46.5 99 46.5V49.5C113.083 49.5 124.5 38.0833 124.5 24H121.5ZM99 1.5C111.426 1.5 121.5 11.5736 121.5 24H124.5C124.5 9.91674 113.083 -1.5 99 -1.5V1.5ZM24 -1.5C9.91674 -1.5 -1.5 9.91674 -1.5 24H1.5C1.5 11.5736 11.5736 1.5 24 1.5V-1.5Z" fill="#FFF1F4"/>
</svg>
