<svg width="26" height="25" viewBox="0 0 26 25" fill="none" xmlns="http://www.w3.org/2000/svg">
<rect x="0.5" width="25" height="25" rx="4" fill="#F8F9FA"/>
<path d="M16.9375 8.875H14.5938L14.3984 8.52344C14.3203 8.36719 14.1641 8.25 13.9883 8.25H11.7422C11.5664 8.25 11.4102 8.36719 11.332 8.52344L11.1562 8.875H8.8125C8.63672 8.875 8.5 9.03125 8.5 9.1875V9.8125C8.5 9.98828 8.63672 10.125 8.8125 10.125H16.9375C17.0938 10.125 17.25 9.98828 17.25 9.8125V9.1875C17.25 9.03125 17.0938 8.875 16.9375 8.875ZM9.53516 17.3711C9.55469 17.8789 9.96484 18.25 10.4727 18.25H15.2578C15.7656 18.25 16.1758 17.8789 16.1953 17.3711L16.625 10.75H9.125L9.53516 17.3711Z" fill="#868E96"/>
</svg>
